<svg width="258" height="189" viewBox="0 0 258 189" fill="none" xmlns="http://www.w3.org/2000/svg">
<g filter="url(#filter0_d)">
<path d="M6.79342 45.9986L28.0318 46.2631L27.9681 51.3747L0.898223 51.0376L1.50247 2.51333L28.2124 2.84594L28.1487 7.95754L7.27037 7.69755L7.06327 24.3283L25.4938 24.5578L25.4302 29.6694L6.99962 29.4399L6.79342 45.9986ZM41.6679 15.0384L41.589 21.3739C43.8057 16.8412 47.6737 14.6092 53.1933 14.6779C56.745 14.7221 59.5634 15.8373 61.6483 18.0234C63.7333 20.2096 64.7533 23.1025 64.7085 26.7022L64.3956 51.8283L58.7081 51.7574L59.0021 28.1433C59.0356 25.4555 58.365 23.407 56.9905 21.9978C55.6645 20.5411 53.8976 19.7991 51.6898 19.7716C48.954 19.7375 46.565 20.7638 44.5229 22.8506C42.5287 24.9379 41.5084 27.8534 41.4617 31.5971L41.2134 51.5396L35.5978 51.4697L36.0524 14.9685L41.6679 15.0384ZM87.1511 46.1352C89.7909 46.168 92.1312 45.1891 94.1722 43.1984C96.2617 41.1602 97.3316 38.1253 97.3818 34.0936C97.4398 29.438 96.4989 25.97 94.5591 23.6897C92.6194 21.4093 90.3536 20.253 87.7618 20.2208C84.642 20.1819 82.1547 21.399 80.2997 23.8721C78.4454 26.2972 77.4934 29.5016 77.4438 33.4853C77.393 37.565 78.3621 40.6973 80.351 42.8822C82.3406 45.0192 84.6073 46.1035 87.1511 46.1352ZM97.6104 15.735L103.298 15.8059L102.88 49.3553C102.811 54.9228 101.223 59.0794 98.1166 61.8249C95.0095 64.6185 91.0322 65.985 86.1846 65.9247C81.7689 65.8697 78.0105 65.0788 74.9093 63.5521L74.9801 57.8645C78.0297 59.6786 81.6184 60.6114 85.7461 60.6628C89.2498 60.7064 92.0212 59.8049 94.0604 57.9581C96.0995 56.1114 97.1439 53.1961 97.1935 49.2125L97.2446 45.1088C94.7934 49.2066 91.192 51.2259 86.4404 51.1667C82.2647 51.1147 78.7081 49.5343 75.7706 46.4255C72.8811 43.3173 71.4704 39.0274 71.5385 33.5558C71.606 28.1322 73.0295 23.6856 75.8089 20.2159C78.5883 16.7463 82.1859 15.0389 86.6015 15.0939C91.5932 15.1561 95.2377 17.3856 97.5351 21.7826L97.6104 15.735ZM112.118 52.4225L112.752 1.52248L118.44 1.59331L117.806 52.4934L112.118 52.4225ZM127.842 52.6183L128.296 16.1172L133.984 16.188L133.529 52.6892L127.842 52.6183ZM128.55 7.33564C127.887 6.60732 127.562 5.71521 127.575 4.65929C127.588 3.60337 127.935 2.71963 128.616 2.00805C129.345 1.29707 130.237 0.948152 131.293 0.961301C132.349 0.97445 133.233 1.34548 133.944 2.07439C134.655 2.8033 135.004 3.69571 134.99 4.75163C134.977 5.80755 134.606 6.691 133.877 7.40198C133.149 8.06496 132.257 8.38988 131.201 8.37673C130.145 8.36358 129.261 8.01655 128.55 7.33564ZM163.587 17.7807L163.52 23.1803C161.329 21.8089 158.313 21.0993 154.474 21.0515C152.554 21.0276 151.012 21.4644 149.849 22.362C148.734 23.2122 148.168 24.3332 148.151 25.7251C148.14 26.5891 148.299 27.3591 148.626 28.0352C148.954 28.6634 149.595 29.2954 150.547 29.9313C151.547 30.5678 152.261 31.0087 152.69 31.2541C153.168 31.452 154.171 31.8966 155.698 32.5876C158.754 33.8738 161.136 35.3196 162.845 36.925C164.553 38.5303 165.39 40.6769 165.357 43.3647C165.318 46.4845 164.183 48.9426 161.953 50.7389C159.77 52.5359 156.783 53.4108 152.991 53.3635C148.576 53.3086 145.009 52.5201 142.292 50.9981L142.361 45.4546C145.553 47.4145 148.996 48.4174 152.692 48.4634C154.9 48.4909 156.585 48.0799 157.748 47.2303C158.911 46.3807 159.501 45.212 159.52 43.7241C159.541 41.9962 158.91 40.6443 157.626 39.6682C156.39 38.6927 154.292 37.5865 151.331 36.3495C148.608 35.2596 146.417 33.9122 144.757 32.3074C143.145 30.7032 142.355 28.5572 142.389 25.8694C142.426 22.8456 143.584 20.4599 145.862 18.7121C148.189 16.9169 151.056 16.0405 154.463 16.083C158.255 16.1302 161.296 16.6961 163.587 17.7807ZM178.116 2.33643L177.858 23.0708C180.075 18.5381 183.943 16.3061 189.462 16.3748C192.966 16.4184 195.761 17.5333 197.845 19.7194C199.978 21.9062 201.022 24.8474 200.976 28.5431L200.665 53.5252L194.977 53.4543L195.271 29.8402C195.304 27.2004 194.634 25.1519 193.26 23.6946C191.934 22.238 190.167 21.496 187.959 21.4685C185.271 21.435 182.906 22.4376 180.865 24.4764C178.823 26.5151 177.779 29.4543 177.731 33.294L177.483 53.2365L171.867 53.1666L172.501 2.2665L178.116 2.33643ZM208.154 13.2233L208.226 7.46373C211.37 5.53473 215.222 4.59862 219.782 4.6554C224.341 4.71218 227.974 5.93351 230.681 8.3194C233.388 10.6573 234.716 13.8901 234.664 18.0178C234.614 22.0974 233.158 25.2476 230.298 27.4681C227.438 29.6887 224.135 30.9436 220.387 31.233L220.217 39.0795L214.745 39.0114L214.822 27.0594C219.238 27.1144 222.655 26.4129 225.073 24.9549C227.492 23.4489 228.72 21.184 228.758 18.1602C228.789 15.7124 228.021 13.7107 226.457 12.1551C224.892 10.5995 222.55 9.80227 219.43 9.76342C215.734 9.7174 211.976 10.8707 208.154 13.2233ZM213.024 50.0068C213.039 48.8549 213.459 47.876 214.285 47.0703C215.112 46.2165 216.101 45.7968 217.253 45.8111C218.453 45.8261 219.479 46.2709 220.333 47.1456C221.186 47.9723 221.606 48.9616 221.592 50.1135C221.577 51.3134 221.132 52.3159 220.258 53.1211C219.432 53.9269 218.395 54.322 217.147 54.3065C215.947 54.2915 214.944 53.871 214.139 53.0449C213.381 52.2194 213.009 51.2067 213.024 50.0068ZM242.33 39.3549L242.751 5.51748L248.295 5.58651L247.873 39.4239L242.33 39.3549ZM240.609 50.3503C240.623 49.1984 241.043 48.2195 241.87 47.4137C242.696 46.56 243.71 46.1406 244.909 46.1555C246.109 46.1704 247.112 46.615 247.917 47.4891C248.771 48.3157 249.191 49.3051 249.176 50.457C249.161 51.6569 248.741 52.6597 247.915 53.4655C247.089 54.2713 246.052 54.6664 244.804 54.6508C243.556 54.6353 242.529 54.2145 241.723 53.3884C240.965 52.5629 240.594 51.5502 240.609 50.3503ZM51.0934 161.559L72.3318 161.824L72.2681 166.935L45.1982 166.598L45.8025 118.074L72.5124 118.406L72.4487 123.518L51.5704 123.258L51.3633 139.889L69.7938 140.118L69.7302 145.23L51.2996 145L51.0934 161.559ZM99.7621 150.428L93.4266 150.349C90.3548 150.311 88.0435 150.882 86.4927 152.063C84.9419 153.244 84.1551 154.746 84.1324 156.57C84.1097 158.394 84.6911 159.889 85.8767 161.056C87.0628 162.175 88.8078 162.749 91.1117 162.778C93.7034 162.81 95.7763 162.116 97.3301 160.695C98.8845 159.226 99.6757 157.364 99.7038 155.108L99.7621 150.428ZM81.0493 138.17L81.1201 132.483C83.8768 130.837 87.487 130.042 91.9506 130.097C101.118 130.212 105.644 134.924 105.528 144.236L105.24 167.346L99.6243 167.276L99.6781 162.956C97.7674 166.053 94.3402 167.57 89.3966 167.509C85.9889 167.466 83.2416 166.424 81.1549 164.382C79.1162 162.34 78.1159 159.783 78.1542 156.712C78.1978 153.208 79.5515 150.513 82.2152 148.626C84.9275 146.691 88.5874 145.753 93.1951 145.81L99.8186 145.893L99.8419 144.021C99.8777 141.141 99.2567 138.973 97.9787 137.517C96.7013 136.013 94.5268 135.242 91.455 135.204C87.5673 135.155 84.0987 136.144 81.0493 138.17ZM134.562 132.428L134.495 137.828C132.304 136.456 129.289 135.747 125.449 135.699C123.529 135.675 121.988 136.112 120.824 137.009C119.71 137.86 119.144 138.981 119.126 140.373C119.116 141.237 119.274 142.007 119.602 142.683C119.93 143.311 120.57 143.943 121.522 144.579C122.522 145.215 123.237 145.656 123.666 145.902C124.143 146.1 125.146 146.544 126.673 147.235C129.73 148.521 132.112 149.967 133.82 151.572C135.528 153.178 136.365 155.324 136.332 158.012C136.293 161.132 135.158 163.59 132.928 165.386C130.745 167.183 127.758 168.058 123.967 168.011C119.551 167.956 115.984 167.168 113.267 165.646L113.336 160.102C116.528 162.062 119.972 163.065 123.668 163.111C125.875 163.138 127.561 162.727 128.723 161.878C129.886 161.028 130.477 159.859 130.495 158.372C130.517 156.644 129.885 155.292 128.601 154.316C127.365 153.34 125.267 152.234 122.306 150.997C119.584 149.907 117.392 148.56 115.732 146.955C114.12 145.351 113.331 143.205 113.364 140.517C113.402 137.493 114.56 135.107 116.837 133.36C119.164 131.564 122.031 130.688 125.439 130.73C129.231 130.778 132.272 131.344 134.562 132.428ZM152.933 167.004L138.617 131.255L145.025 131.334L149.627 143.417L155.828 160.055C156.227 158.812 158.216 153.316 161.794 143.568L166.191 131.598L172.311 131.674L158.693 167.075C156.759 171.996 154.484 175.448 151.867 177.431C149.298 179.415 146.358 180.387 143.046 180.346C141.798 180.33 140.792 180.197 140.027 179.948L140.091 174.836C140.808 175.037 141.623 175.143 142.535 175.155C147.383 175.215 150.849 172.498 152.933 167.004ZM174.972 167.566C174.166 166.74 173.771 165.727 173.785 164.527C173.8 163.327 174.221 162.324 175.047 161.519C175.873 160.713 176.886 160.317 178.086 160.332C179.286 160.347 180.289 160.768 181.095 161.594C181.9 162.42 182.296 163.433 182.281 164.633C182.266 165.833 181.845 166.836 181.019 167.641C180.193 168.447 179.18 168.843 177.98 168.828C176.78 168.813 175.777 168.392 174.972 167.566ZM185.844 167.701C185.038 166.875 184.643 165.862 184.658 164.662C184.673 163.463 185.093 162.46 185.919 161.654C186.745 160.848 187.758 160.453 188.958 160.468C190.158 160.483 191.161 160.903 191.967 161.729C192.773 162.555 193.168 163.568 193.153 164.768C193.138 165.968 192.718 166.971 191.892 167.777C191.065 168.583 190.052 168.978 188.853 168.963C187.653 168.948 186.65 168.528 185.844 167.701ZM196.716 167.837C195.911 167.011 195.515 165.998 195.53 164.798C195.545 163.598 195.965 162.595 196.792 161.789C197.618 160.984 198.631 160.588 199.831 160.603C201.031 160.618 202.033 161.039 202.839 161.865C203.645 162.691 204.04 163.704 204.025 164.904C204.01 166.104 203.59 167.106 202.764 167.912C201.938 168.718 200.925 169.113 199.725 169.098C198.525 169.083 197.522 168.663 196.716 167.837Z" fill="#E5E5E5"/>
</g>
<defs>
<filter id="filter0_d" x="0.898224" y="0.960938" width="256.278" height="187.386" filterUnits="userSpaceOnUse" color-interpolation-filters="sRGB">
<feFlood flood-opacity="0" result="BackgroundImageFix"/>
<feColorMatrix in="SourceAlpha" type="matrix" values="0 0 0 0 0 0 0 0 0 0 0 0 0 0 0 0 0 0 127 0" result="hardAlpha"/>
<feOffset dx="6" dy="6"/>
<feGaussianBlur stdDeviation="1"/>
<feColorMatrix type="matrix" values="0 0 0 0 0.0941176 0 0 0 0 0.121569 0 0 0 0 0.407843 0 0 0 0.66 0"/>
<feBlend mode="normal" in2="BackgroundImageFix" result="effect1_dropShadow"/>
<feBlend mode="normal" in="SourceGraphic" in2="effect1_dropShadow" result="shape"/>
</filter>
</defs>
</svg>
